HIERARCHY
ROOT Hips
{
  OFFSET -22.4525 93.2731 28.0452
  CHANNELS 6 Xposition Yposition Zposition Zrotation Xrotation Yrotation
  JOINT Spine
  {
    OFFSET 0 8 0
    CHANNELS 6 Xposition Yposition Zposition Zrotation Xrotation Yrotation
    JOINT Spine1
    {
      OFFSET 0 8 0
      CHANNELS 6 Xposition Yposition Zposition Zrotation Xrotation Yrotation
      JOINT Spine2
      {
        OFFSET 0 8 0
        CHANNELS 6 Xposition Yposition Zposition Zrotation Xrotation Yrotation
        JOINT Spine3
        {
          OFFSET 0 8 0
          CHANNELS 6 Xposition Yposition Zposition Zrotation Xrotation Yrotation
          JOINT Neck
          {
            OFFSET 0 17 0
            CHANNELS 6 Xposition Yposition Zposition Zrotation Xrotation Yrotation
            JOINT Head
            {
              OFFSET 0 10.8 0
              CHANNELS 6 Xposition Yposition Zposition Zrotation Xrotation Yrotation
              End Site
              {
                OFFSET 0 20.25 0
              }
            }
          }
          JOINT LeftShoulder
          {
            OFFSET 5 17 0
            CHANNELS 6 Xposition Yposition Zposition Zrotation Xrotation Yrotation
            JOINT LeftShoulder2
            {
              OFFSET 6.45 0 0
              CHANNELS 6 Xposition Yposition Zposition Zrotation Xrotation Yrotation
              JOINT LeftArm
              {
                OFFSET 6.45 0 0
                CHANNELS 6 Xposition Yposition Zposition Zrotation Xrotation Yrotation
                JOINT LeftForeArm
                {
                  OFFSET 0 -32.4 -2
                  CHANNELS 6 Xposition Yposition Zposition Zrotation Xrotation Yrotation
                  JOINT LeftHand
                  {
                    OFFSET 0 -25.65 2
                    CHANNELS 6 Xposition Yposition Zposition Zrotation Xrotation Yrotation
                    JOINT LeftHandThumb1
                    {
                      OFFSET -0.5 -1.5 2.65
                      CHANNELS 6 Xposition Yposition Zposition Zrotation Xrotation Yrotation
                      JOINT LeftHandThumb2
                      {
                        OFFSET 0 -3.8 3.7
                        CHANNELS 6 Xposition Yposition Zposition Zrotation Xrotation Yrotation
                        JOINT LeftHandThumb3
                        {
                          OFFSET 0 -3 2.7
                          CHANNELS 6 Xposition Yposition Zposition Zrotation Xrotation Yrotation
                          End Site
                          {
                            OFFSET 0 -2.3 1.8
                          }
                        }
                      }
                    }
                    JOINT LeftHandIndex
                    {
                      OFFSET 0 -1.9 1.6
                      CHANNELS 6 Xposition Yposition Zposition Zrotation Xrotation Yrotation
                      JOINT LeftHandIndex1
                      {
                        OFFSET 0 -8.3 1.9
                        CHANNELS 6 Xposition Yposition Zposition Zrotation Xrotation Yrotation
                        JOINT LeftHandIndex2
                        {
                          OFFSET 0 -4.5 0
                          CHANNELS 6 Xposition Yposition Zposition Zrotation Xrotation Yrotation
                          JOINT LeftHandIndex3
                          {
                            OFFSET 0 -3.4 0
                            CHANNELS 6 Xposition Yposition Zposition Zrotation Xrotation Yrotation
                            End Site
                            {
                              OFFSET 0 -2.6 0
                            }
                          }
                        }
                      }
                    }
                    JOINT LeftHandMiddle
                    {
                      OFFSET -0.25 -2.2 0.4
                      CHANNELS 6 Xposition Yposition Zposition Zrotation Xrotation Yrotation
                      JOINT LeftHandMiddle1
                      {
                        OFFSET 0 -8.3 1
                        CHANNELS 6 Xposition Yposition Zposition Zrotation Xrotation Yrotation
                        JOINT LeftHandMiddle2
                        {
                          OFFSET 0 -4.65 0
                          CHANNELS 6 Xposition Yposition Zposition Zrotation Xrotation Yrotation
                          JOINT LeftHandMiddle3
                          {
                            OFFSET 0 -3.3 0
                            CHANNELS 6 Xposition Yposition Zposition Zrotation Xrotation Yrotation
                            End Site
                            {
                              OFFSET 0 -2.7 0
                            }
                          }
                        }
                      }
                    }
                    JOINT LeftHandRing
                    {
                      OFFSET -0.5 -2.15 -0.8
                      CHANNELS 6 Xposition Yposition Zposition Zrotation Xrotation Yrotation
                      JOINT LeftHandRing1
                      {
                        OFFSET 0 -7.75 -0.2
                        CHANNELS 6 Xposition Yposition Zposition Zrotation Xrotation Yrotation
                        JOINT LeftHandRing2
                        {
                          OFFSET 0 -3.8 0
                          CHANNELS 6 Xposition Yposition Zposition Zrotation Xrotation Yrotation
                          JOINT LeftHandRing3
                          {
                            OFFSET 0 -3.4 0
                            CHANNELS 6 Xposition Yposition Zposition Zrotation Xrotation Yrotation
                            End Site
                            {
                              OFFSET 0 -2.6 0
                            }
                          }
                        }
                      }
                    }
                    JOINT LeftHandPinky
                    {
                      OFFSET -0.75 -1.75 -1.85
                      CHANNELS 6 Xposition Yposition Zposition Zrotation Xrotation Yrotation
                      JOINT LeftHandPinky1
                      {
                        OFFSET 0 -7.15 -1
                        CHANNELS 6 Xposition Yposition Zposition Zrotation Xrotation Yrotation
                        JOINT LeftHandPinky2
                        {
                          OFFSET 0 -3 0
                          CHANNELS 6 Xposition Yposition Zposition Zrotation Xrotation Yrotation
                          JOINT LeftHandPinky3
                          {
                            OFFSET 0 -2.35 0
                            CHANNELS 6 Xposition Yposition Zposition Zrotation Xrotation Yrotation
                            End Site
                            {
                              OFFSET 0 -2.1 0
                            }
                          }
                        }
                      }
                    }
                  }
                }
              }
            }
          }
          JOINT RightShoulder
          {
            OFFSET -5 17 0
            CHANNELS 6 Xposition Yposition Zposition Zrotation Xrotation Yrotation
            JOINT RightShoulder2
            {
              OFFSET -6.45 0 0
              CHANNELS 6 Xposition Yposition Zposition Zrotation Xrotation Yrotation
              JOINT RightArm
              {
                OFFSET -6.45 0 0
                CHANNELS 6 Xposition Yposition Zposition Zrotation Xrotation Yrotation
                JOINT RightForeArm
                {
                  OFFSET 0 -32.4 -2
                  CHANNELS 6 Xposition Yposition Zposition Zrotation Xrotation Yrotation
                  JOINT RightHand
                  {
                    OFFSET 0 -25.65 2
                    CHANNELS 6 Xposition Yposition Zposition Zrotation Xrotation Yrotation
                    JOINT RightHandThumb1
                    {
                      OFFSET 0.5 -1.5 2.65
                      CHANNELS 6 Xposition Yposition Zposition Zrotation Xrotation Yrotation
                      JOINT RightHandThumb2
                      {
                        OFFSET 0 -3.8 3.7
                        CHANNELS 6 Xposition Yposition Zposition Zrotation Xrotation Yrotation
                        JOINT RightHandThumb3
                        {
                          OFFSET 0 -3 2.7
                          CHANNELS 6 Xposition Yposition Zposition Zrotation Xrotation Yrotation
                          End Site
                          {
                            OFFSET 0 -2.3 1.8
                          }
                        }
                      }
                    }
                    JOINT RightHandIndex
                    {
                      OFFSET 0 -1.9 1.6
                      CHANNELS 6 Xposition Yposition Zposition Zrotation Xrotation Yrotation
                      JOINT RightHandIndex1
                      {
                        OFFSET 0 -8.3 1.9
                        CHANNELS 6 Xposition Yposition Zposition Zrotation Xrotation Yrotation
                        JOINT RightHandIndex2
                        {
                          OFFSET 0 -4.5 0
                          CHANNELS 6 Xposition Yposition Zposition Zrotation Xrotation Yrotation
                          JOINT RightHandIndex3
                          {
                            OFFSET 0 -3.4 0
                            CHANNELS 6 Xposition Yposition Zposition Zrotation Xrotation Yrotation
                            End Site
                            {
                              OFFSET 0 -2.6 0
                            }
                          }
                        }
                      }
                    }
                    JOINT RightHandMiddle
                    {
                      OFFSET 0.25 -2.2 0.4
                      CHANNELS 6 Xposition Yposition Zposition Zrotation Xrotation Yrotation
                      JOINT RightHandMiddle1
                      {
                        OFFSET 0 -8.3 1
                        CHANNELS 6 Xposition Yposition Zposition Zrotation Xrotation Yrotation
                        JOINT RightHandMiddle2
                        {
                          OFFSET 0 -4.65 0
                          CHANNELS 6 Xposition Yposition Zposition Zrotation Xrotation Yrotation
                          JOINT RightHandMiddle3
                          {
                            OFFSET 0 -3.3 0
                            CHANNELS 6 Xposition Yposition Zposition Zrotation Xrotation Yrotation
                            End Site
                            {
                              OFFSET 0 -2.7 0
                            }
                          }
                        }
                      }
                    }
                    JOINT RightHandRing
                    {
                      OFFSET 0.5 -2.15 -0.8
                      CHANNELS 6 Xposition Yposition Zposition Zrotation Xrotation Yrotation
                      JOINT RightHandRing1
                      {
                        OFFSET 0 -7.75 -0.2
                        CHANNELS 6 Xposition Yposition Zposition Zrotation Xrotation Yrotation
                        JOINT RightHandRing2
                        {
                          OFFSET 0 -3.8 0
                          CHANNELS 6 Xposition Yposition Zposition Zrotation Xrotation Yrotation
                          JOINT RightHandRing3
                          {
                            OFFSET 0 -3.4 0
                            CHANNELS 6 Xposition Yposition Zposition Zrotation Xrotation Yrotation
                            End Site
                            {
                              OFFSET 0 -2.6 0
                            }
                          }
                        }
                      }
                    }
                    JOINT RightHandPinky
                    {
                      OFFSET 0.75 -1.75 -1.85
                      CHANNELS 6 Xposition Yposition Zposition Zrotation Xrotation Yrotation
                      JOINT RightHandPinky1
                      {
                        OFFSET 0 -7.15 -1
                        CHANNELS 6 Xposition Yposition Zposition Zrotation Xrotation Yrotation
                        JOINT RightHandPinky2
                        {
                          OFFSET 0 -3 0
                          CHANNELS 6 Xposition Yposition Zposition Zrotation Xrotation Yrotation
                          JOINT RightHandPinky3
                          {
                            OFFSET 0 -2.35 0
                            CHANNELS 6 Xposition Yposition Zposition Zrotation Xrotation Yrotation
                            End Site
                            {
                              OFFSET 0 -2.1 0
                            }
                          }
                        }
                      }
                    }
                  }
                }
              }
            }
          }
        }
      }
    }
  }
  JOINT LeftUpLeg
  {
    OFFSET 8 0 0
    CHANNELS 6 Xposition Yposition Zposition Zrotation Xrotation Yrotation
    JOINT LeftLeg
    {
      OFFSET 0 -45 -1
      CHANNELS 6 Xposition Yposition Zposition Zrotation Xrotation Yrotation
      JOINT LeftFoot
      {
        OFFSET 0 -41 -2
        CHANNELS 6 Xposition Yposition Zposition Zrotation Xrotation Yrotation
        JOINT LeftToeBase
        {
          OFFSET 0 -7.5 12.5
          CHANNELS 6 Xposition Yposition Zposition Zrotation Xrotation Yrotation
          JOINT LeftFootToe
          {
            OFFSET 0 0 4
            CHANNELS 6 Xposition Yposition Zposition Zrotation Xrotation Yrotation
            End Site
            {
              OFFSET 0 0 0
            }
          }
        }
      }
    }
  }
  JOINT RightUpLeg
  {
    OFFSET -8 0 0
    CHANNELS 6 Xposition Yposition Zposition Zrotation Xrotation Yrotation
    JOINT RightLeg
    {
      OFFSET 0 -45 -1
      CHANNELS 6 Xposition Yposition Zposition Zrotation Xrotation Yrotation
      JOINT RightFoot
      {
        OFFSET 0 -41 -2
        CHANNELS 6 Xposition Yposition Zposition Zrotation Xrotation Yrotation
        JOINT RightToeBase
        {
          OFFSET 0 -7.5 12.5
          CHANNELS 6 Xposition Yposition Zposition Zrotation Xrotation Yrotation
          JOINT RightFootToe
          {
            OFFSET 0 0 4
            CHANNELS 6 Xposition Yposition Zposition Zrotation Xrotation Yrotation
            End Site
            {
              OFFSET 0 0 0
            }
          }
        }
      }
    }
  }
}
MOTION
Frames:	3
Frame Time:	0.0111111
-21.5234 93.2927 28.2293 0.283061 -0.201258 134.479 -1.77636e-15 8 0 0.381049 -4.02204 -0.378142 0 8 3.55271e-15 -0.0124957 1.93704 1.10467 0 8 -3.55271e-15 -0.00286828 0.973511 0.552275 -1.77636e-15 8 0 -0.00286664 0.973332 0.55217 7.10543e-15 17 0 -1.07391 -3.68626 -0.930627 1.77636e-15 10.8 0 -2.59024 0.331721 -1.99755 5 17 0 -2.43214 -5.79592 -8.6997 6.45 0 0 1.24586 0.521653 2.47839 6.45 0 0 1.91732 0.442177 -14.4229 0 -32.4 -2 0.0852948 0.190987 13.8485 -1.77636e-15 -25.65 2 -2.32915 3.51754 -5.75989 -0.5 -1.5 2.65 -2.86478 -8.05372 -2.75505 -1.77636e-15 -3.8 3.7 0.00973635 10.1292 0.00639969 -8.88178e-16 -3 2.7 1.63188e-16 5.1279 1.59667e-14 8.88178e-16 -1.9 1.6 2.98177e-16 9.93923e-17 -6.36111e-15 8.88178e-16 -8.3 1.9 -0.014934 0.854334 -0 2.66454e-15 -4.5 0 1.58407e-16 -1.0871e-16 -0 -1.77636e-15 -3.4 0 1.55301e-16 -2.76435e-16 9.54166e-15 -0.25 -2.2 0.4 2.98177e-16 9.93923e-17 -6.36111e-15 0 -8.3 1 -0.0216035 1.04459 -3.18108e-15 3.55271e-15 -4.65 0 -2.73329e-16 4.96962e-17 3.18055e-15 -3.55271e-15 -3.3 -3.55271e-15 9.93923e-17 -3.72721e-17 6.36111e-15 -0.5 -2.15 -0.8 2.98177e-16 9.93923e-17 -6.36111e-15 0 -7.75 -0.2 -0.0356721 1.43531 0.010482 0 -3.8 7.10543e-15 9.93923e-17 -2.48481e-17 -6.36111e-15 0 -3.4 0 4.96962e-17 -7.45443e-17 -3.18055e-15 -0.75 -1.75 -1.85 2.98177e-16 9.93923e-17 -6.36111e-15 -3.55271e-15 -7.15 -1 -0.0401379 1.62076 0.0124698 -1.77636e-15 -3 0 9.93923e-17 0 -6.36111e-15 0 -2.35 0 9.93923e-17 -4.96962e-17 -3.18055e-15 -5 17 0 -0.244573 -5.30343 -6.81395 -6.45 2.84217e-14 -3.55271e-15 -0.0860146 0.442034 -3.52126 -6.45 -2.84217e-14 0 3.59172 -1.43879 11.1257 0 -32.4 -2 -2.23927 -2.28929 -6.62844 -7.10543e-15 -25.65 2 1.50088 2.46229 2.22852 0.5 -1.5 2.65 -0.0656311 -1.75855 4.24701 1.77636e-15 -3.8 3.7 -1.42779e-16 8.38758 6.42988e-15 0 -3 2.7 1.93173e-16 -0.101083 -3.18056e-15 -3.55271e-15 -1.9 1.6 -7.95139e-16 1.59028e-15 -3.18055e-15 0 -8.3 1.9 0.00692882 -0.612011 -6.36147e-15 7.10543e-15 -4.5 1.77636e-15 1.90539 0 -0 -1.77636e-15 -3.4 -3.55271e-15 1.85673 1.59028e-15 -0 0.25 -2.2 0.4 -7.95139e-16 1.59028e-15 -3.18055e-15 3.55271e-15 -8.3 1 0.0167769 -0.0045693 -0.00856298 0 -4.65 0 8.82781e-32 -7.95139e-16 6.36111e-15 -3.55271e-15 -3.3 -3.55271e-15 -0 -1.59028e-15 -0 0.5 -2.15 -0.8 -7.95139e-16 1.59028e-15 -3.18055e-15 3.55271e-15 -7.75 -0.2 0.0300762 1.20398 -0.0106447 3.55271e-15 -3.8 3.55271e-15 2.53827 0.00330938 0.0016175 0 -3.4 0 2.4526 0.00326105 0.00158007 0.75 -1.75 -1.85 -7.95139e-16 1.59028e-15 -3.18055e-15 -3.55271e-15 -7.15 -1 0.035593 1.81147 -0.00925505 0 -3 3.55271e-15 -8.82781e-32 1.59028e-15 3.18055e-15 7.10543e-15 -2.35 3.55271e-15 7.95139e-16 1.59028e-15 -0 8 -2.84217e-14 0 0.0977118 2.02989 0.160259 3.55271e-15 -45 -1 0.00582563 3.83126 0.22953 3.55271e-15 -41 -2 0.212741 -5.78031 -10.3974 -1.77636e-15 -7.5 12.5 -1.55301e-18 6.21202e-18 6.36111e-15 0 0 4 9.08964 1.74353 4.07679 -8 -1.42109e-14 0 0.141753 -0.669675 0.0653796 -3.55271e-15 -45 -1 0.00775028 3.83335 0.621523 -1.77636e-15 -41 -2 0.155262 -3.10072 2.90656 0 -7.5 12.5 7.76503e-19 -7.76503e-19 9.54166e-15 -1.77636e-15 0 4 -1.4896 -0.765392 -14.8029 
-21.5234 93.2928 28.2288 0.286643 -0.204748 134.495 1.77636e-15 8 0 0.386748 -4.02068 -0.393152 0 8 0 -0.0129214 1.93662 1.08441 0 8 3.55271e-15 -0.00320769 0.973284 0.542133 0 8 7.10543e-15 -0.00320579 0.973106 0.542017 -3.55271e-15 17 -7.10543e-15 -1.07191 -3.67882 -0.915732 1.77636e-15 10.8 0 -2.5824 0.340072 -1.96325 5 17 0 -2.425 -5.7969 -8.65192 6.45 -5.68434e-14 -3.55271e-15 1.24638 0.526473 2.48151 6.45 0 0 1.9238 0.435763 -14.4297 0 -32.4 -2 0.0804946 0.192661 13.8394 0 -25.65 2 -2.32822 3.51766 -5.7668 -0.5 -1.5 2.65 -2.87162 -8.054 -2.72253 -2.66454e-15 -3.8 3.7 0.00973637 10.129 0.00639969 1.77636e-15 -3 2.7 2.16113e-15 5.12806 -6.38667e-15 -1.77636e-15 -1.9 1.6 -0 -1.98785e-16 -0 0 -8.3 1.9 -0.014934 0.851871 -3.18091e-15 8.88178e-16 -4.5 0 -1.64619e-16 2.48481e-17 -3.18055e-15 1.77636e-15 -3.4 0 -5.90142e-17 1.02498e-16 6.36111e-15 -0.25 -2.2 0.4 -0 -1.98785e-16 -0 3.55271e-15 -8.3 1 -0.0216035 1.04272 -0 -1.77636e-15 -4.65 -3.55271e-15 -7.45443e-17 6.21202e-17 -0 1.77636e-15 -3.3 0 4.96962e-17 -3.72721e-17 -0 -0.5 -2.15 -0.8 -0 -1.98785e-16 -0 0 -7.75 -0.2 -0.0356658 1.43508 0.0104819 3.55271e-15 -3.8 0 4.96962e-17 1.73937e-16 -3.18055e-15 0 -3.4 0 -4.96962e-17 9.93923e-17 3.18055e-15 -0.75 -1.75 -1.85 -0 -1.98785e-16 -0 -3.55271e-15 -7.15 -1 -0.0401321 1.62102 0.0124698 -1.77636e-15 -3 0 -8.27607e-33 1.49089e-16 3.18055e-15 1.77636e-15 -2.35 0 2.75869e-33 4.96962e-17 -3.18055e-15 -5 17 0 -0.234014 -5.29645 -6.76179 -6.45 0 3.55271e-15 -0.0860512 0.441613 -3.52075 -6.45 0 3.55271e-15 3.5961 -1.44443 11.1245 0 -32.4 -2 -2.24049 -2.28437 -6.6505 -3.55271e-15 -25.65 2 1.49102 2.46729 2.2411 0.5 -1.5 2.65 -0.108729 -1.77885 4.23675 -1.77636e-15 -3.8 3.7 1.26499e-15 8.40327 -3.21507e-15 3.55271e-15 -3 2.7 1.7634e-16 -0.101083 -1.27222e-14 3.55271e-15 -1.9 1.6 0 0 -0 -3.55271e-15 -8.3 1.9 0.00686713 -0.612197 6.36147e-15 0 -4.5 1.77636e-15 1.91576 2.38542e-15 -6.36111e-15 -1.77636e-15 -3.4 -1.77636e-15 1.86659 -7.95139e-16 -6.36111e-15 0.25 -2.2 0.4 0 0 -0 0 -8.3 1 0.0167147 -0.00416452 -0.00856298 3.55271e-15 -4.65 3.55271e-15 -7.95139e-16 1.59028e-15 -0 -3.55271e-15 -3.3 -3.55271e-15 -7.95139e-16 -7.95139e-16 -0 0.5 -2.15 -0.8 0 0 -0 3.55271e-15 -7.75 -0.2 0.0301206 1.2035 -0.0106447 0 -3.8 3.55271e-15 2.55843 0.00330938 0.0016175 0 -3.4 3.55271e-15 2.47141 0.00326105 0.00158007 0.75 -1.75 -1.85 0 0 -0 0 -7.15 -1 0.0356116 1.81129 -0.00925504 0 -3 7.10543e-15 1.32417e-31 7.95139e-16 -9.54166e-15 0 -2.35 -3.55271e-15 -7.95139e-16 0 -0 8 0 0 0.106153 2.02835 0.175478 3.55271e-15 -45 -1 0.00566185 3.83126 0.232151 3.55271e-15 -41 -2 0.209495 -5.77932 -10.4213 0 -7.5 12.5 -1.55301e-18 -6.21202e-18 3.18055e-15 -1.77636e-15 0 4 9.04098 1.73303 4.07704 -8 -1.42109e-14 -7.10543e-15 0.148456 -0.669969 0.0651123 1.77636e-15 -45 -1 0.00775366 3.83334 0.621348 0 -41 -2 0.153319 -3.1006 2.86651 -1.77636e-15 -7.5 12.5 4.31046e-35 -7.76503e-19 3.18055e-15 0 -4.33681e-19 4 -1.49815 -0.793425 -14.8037 
-21.5234 93.2929 28.2284 0.290233 -0.208231 134.511 1.77636e-15 8 0 0.391926 -4.01983 -0.407658 0 8 0 -0.0133814 1.93628 1.06437 1.77636e-15 8 0 -0.00355322 0.97306 0.532104 1.77636e-15 8 0 -0.00355161 0.972884 0.532009 0 17 0 -1.06999 -3.67295 -0.901002 1.77636e-15 10.8 0 -2.5767 0.350207 -1.92911 5 17 0 -2.41762 -5.798 -8.60315 6.45 -2.84217e-14 3.55271e-15 1.24687 0.531861 2.48351 6.45 -2.84217e-14 3.55271e-15 1.93142 0.429843 -14.4379 0 -32.4 -2 0.0761458 0.193869 13.8343 1.77636e-15 -25.65 2 -2.32701 3.51783 -5.77852 -0.5 -1.5 2.65 -2.87651 -8.05459 -2.68622 0 -3.8 3.7 0.00973585 10.1336 0.00639978 -1.77636e-15 -3 2.7 0 5.12816 -0 -1.77636e-15 -1.9 1.6 -3.97569e-16 -1.98785e-16 -0 1.77636e-15 -8.3 1.9 -0.014934 0.849579 3.1809e-15 0 -4.5 -3.55271e-15 -1.11816e-16 1.55301e-17 -6.36111e-15 -1.77636e-15 -3.4 0 5.28022e-17 1.3977e-17 -6.36111e-15 -0.25 -2.2 0.4 -3.97569e-16 -1.98785e-16 -0 0 -8.3 1 -0.0216035 1.04092 -3.18108e-15 3.55271e-15 -4.65 0 -4.96962e-17 3.72721e-17 3.18055e-15 -3.55271e-15 -3.3 0 -7.45443e-17 1.36664e-16 -9.54166e-15 -0.5 -2.15 -0.8 -3.97569e-16 -1.98785e-16 -0 3.55271e-15 -7.75 -0.2 -0.0356598 1.43484 0.0104819 3.55271e-15 -3.8 0 -0 0 3.18055e-15 -1.77636e-15 -3.4 0 -2.75869e-33 -4.96962e-17 -3.18055e-15 -0.75 -1.75 -1.85 -3.97569e-16 -1.98785e-16 -0 0 -7.15 -1 -0.0401263 1.62124 0.0124698 1.77636e-15 -3 7.10543e-15 -4.96962e-17 4.96962e-17 -1.27222e-14 5.32907e-15 -2.35 0 -1.49089e-16 4.96962e-17 -1.59028e-14 -5 17 -7.10543e-15 -0.224046 -5.28993 -6.7102 -6.45 2.84217e-14 0 -0.0860876 0.441176 -3.52025 -6.45 0 0 3.605 -1.45106 11.1189 0 -32.4 -2 -2.24568 -2.27816 -6.67655 0 -25.65 2 1.48495 2.47127 2.24994 0.5 -1.5 2.65 -0.150336 -1.79678 4.2243 0 -3.8 3.7 -1.78115e-16 8.41864 -9.6456e-15 1.77636e-15 -3 2.7 5.96354e-16 -0.101083 -0 0 -1.9 1.6 -1.59028e-15 -2.38542e-15 -6.36111e-15 0 -8.3 1.9 0.00680587 -0.616228 -6.36148e-15 0 -4.5 0 1.92337 2.38542e-15 6.36111e-15 0 -3.4 -3.55271e-15 1.87381 -7.95139e-16 -3.18055e-15 0.25 -2.2 0.4 -1.59028e-15 -2.38542e-15 -6.36111e-15 3.55271e-15 -8.3 1 0.0166522 -0.00778495 -0.00856298 3.55271e-15 -4.65 0 -7.95139e-16 -7.95139e-16 -6.36111e-15 3.55271e-15 -3.3 0 -7.95139e-16 0 -0 0.5 -2.15 -0.8 -1.59028e-15 -2.38542e-15 -6.36111e-15 3.55271e-15 -7.75 -0.2 0.0301646 1.20298 -0.0106447 -3.55271e-15 -3.8 0 2.57545 0.00330938 0.0016175 0 -3.4 -3.55271e-15 2.48729 0.00326105 0.00158007 0.75 -1.75 -1.85 -1.59028e-15 -2.38542e-15 -6.36111e-15 0 -7.15 -1 0.0356302 1.81114 -0.00925504 -7.10543e-15 -3 -3.55271e-15 7.95139e-16 0 3.18055e-15 3.55271e-15 -2.35 3.55271e-15 -4.41391e-32 -7.95139e-16 -3.18055e-15 8 0 -7.10543e-15 0.114238 2.02675 0.191426 0 -45 -1 0.00558663 3.83126 0.233448 -3.55271e-15 -41 -2 0.20597 -5.77825 -10.4477 1.77636e-15 -7.5 12.5 6.21202e-18 1.55301e-18 -0 -5.32907e-15 2.77556e-17 4 8.99911 1.72401 4.07728 -8 -1.42109e-14 0 0.155017 -0.670276 0.0653538 -3.55271e-15 -45 -1 0.00775738 3.83334 0.621168 0 -41 -2 0.150968 -3.10048 2.81968 -1.77636e-15 -7.5 12.5 -0 0 3.18055e-15 1.77636e-15 0 4 -1.50878 -0.826099 -14.8045 
